<?xml version="1.0" encoding="UTF-8"?>
<svg xmlns="http://www.w3.org/2000/svg" width="110" height="43" viewBox="0 0 110 43" fill="none">
  <g clip-path="url(#clip0_80_3090)">
    <path d="M15.1979 2.72918C16.5891 2.72918 17.952 2.96179 19.2488 3.4203C20.5025 3.86321 21.6707 4.50826 22.72 5.33686L24.1037 6.42927L25.486 5.33389C26.7389 4.34105 28.2482 3.8164 29.8504 3.8164C33.0571 3.8164 35.858 5.98116 36.6605 9.08005L37.1696 11.0434L39.1724 10.7224C39.7966 10.6221 40.4335 10.5715 41.0644 10.5715C44.2257 10.5715 47.1975 11.8029 49.4329 14.0375C51.6682 16.2729 52.8989 19.2447 52.8989 22.406C52.8989 25.5673 51.6675 28.5392 49.4329 30.7745C47.1983 33.0099 44.2257 34.2405 41.0644 34.2405C40.6928 34.2405 40.3116 34.2219 39.9319 34.1863L38.9078 34.0889L38.1691 34.8046C34.5352 38.3285 29.7464 40.2696 24.6849 40.2696C19.6233 40.2696 14.9579 38.3776 11.3433 34.9428L10.7265 34.3564L9.87558 34.3304C7.82006 34.2673 5.89681 33.4193 4.46107 31.9412C3.02235 30.4602 2.22942 28.5072 2.22942 26.442C2.22942 24.7566 2.75333 23.1484 3.74468 21.7915L4.49005 20.7719L3.99809 19.6081C3.36568 18.1122 3.04538 16.5218 3.04538 14.881C3.04538 11.635 4.30946 8.58289 6.60502 6.28808C8.90058 3.99252 11.9519 2.72844 15.1979 2.72844M15.1979 0.499023C7.25527 0.499767 0.815967 6.93907 0.815967 14.8817C0.815967 16.8667 1.21801 18.7572 1.9448 20.4768C0.722331 22.1504 0 24.2119 0 26.4428C0 31.9279 4.36297 36.3934 9.80721 36.5599C13.6812 40.2406 18.9188 42.4998 24.6849 42.4998C30.4509 42.4998 35.8319 40.1775 39.7208 36.406C40.163 36.4476 40.6111 36.4699 41.0636 36.4699C48.8309 36.4699 55.1283 30.1733 55.1283 22.4053C55.1283 14.6372 48.8317 8.34063 41.0636 8.34063C40.2997 8.34063 39.5499 8.40231 38.8186 8.51972C37.7857 4.5313 34.1621 1.58624 29.8504 1.58624C27.6782 1.58624 25.6814 2.33383 24.1015 3.58602C21.6529 1.65386 18.5599 0.499767 15.1979 0.499767V0.499023Z" fill="url(#paint0_linear_80_3090)"></path>
    <path fill-rule="evenodd" clip-rule="evenodd" d="M14.6664 20.1161C15.9817 20.1161 17.2063 19.7282 18.2322 19.0606L23.528 25.6324C22.7686 26.4528 22.3044 27.5505 22.3044 28.7565C22.3044 31.2971 24.3639 33.3566 26.9045 33.3566C29.445 33.3566 31.5045 31.2971 31.5045 28.7565C31.5045 27.8983 31.2694 27.0949 30.8602 26.4073L36.9332 21.478C37.6436 22.1044 38.5764 22.4844 39.598 22.4844C41.8241 22.4844 43.6288 20.6798 43.6288 18.4536C43.6288 16.2275 41.8241 14.4228 39.598 14.4228C37.3719 14.4228 35.5672 16.2275 35.5672 18.4536C35.5672 19.1758 35.7571 19.8536 36.0897 20.4398L30.0167 25.3691C29.1976 24.6162 28.1047 24.1565 26.9045 24.1565C26.052 24.1565 25.2536 24.3884 24.5691 24.7926L19.2733 18.2207C20.4709 17.0343 21.2127 15.3887 21.2127 13.5698C21.2127 9.95432 18.2819 7.02344 14.6664 7.02344C11.051 7.02344 8.12012 9.95432 8.12012 13.5698C8.12012 17.1852 11.051 20.1161 14.6664 20.1161Z" fill="url(#paint1_linear_80_3090)"></path>
  </g>
  <path d="M60.442 20.4314L61.7054 12.4326H58.8066L59.1631 10.1875H67.7858L67.4294 12.4326H64.5448L63.2814 20.4314H60.442Z" fill="white"></path>
  <path d="M70.9147 15.1838L70.0818 20.4321H67.3906L69.0556 10.0103H71.6868L71.0918 13.6077C71.7757 13.1468 72.2663 13.0579 72.7716 13.0579C74.258 13.0579 75.3287 13.8759 74.9568 16.1803L74.2877 20.4321H71.5372L72.147 16.5812C72.2959 15.6743 72.3404 14.9163 71.5972 14.9163C71.4038 14.9163 71.1066 15.0355 70.9133 15.1838H70.9147Z" fill="white"></path>
  <path d="M75.5674 20.4314L76.7207 13.0874H79.4523L78.299 20.4314H75.5674Z" fill="white"></path>
  <path d="M79.8614 10.8647C79.9832 10.1515 79.7858 9.60547 78.6174 9.60547C77.4489 9.60547 77.1147 10.1515 76.9937 10.8647C76.8719 11.5778 77.1298 12.1238 78.2226 12.1238C79.3154 12.1238 79.7404 11.5778 79.8614 10.8647Z" fill="white"></path>
  <path d="M87.7591 16.4257L87.1216 20.4316H84.269L84.8914 16.5013C85.0887 15.1809 84.8157 14.8625 84.2236 14.8625C83.9657 14.8625 83.5709 15.0145 83.2828 15.196L82.463 20.4309H79.7012L80.8545 13.0868H83.4341L83.4492 13.6941C84.1472 13.1329 84.8755 12.9053 85.5281 12.9053C86.5143 12.9053 88.2439 13.3605 87.7584 16.4257H87.7591Z" fill="white"></path>
  <path d="M92.7847 20.4314C92.4966 19.7939 91.8288 18.5952 91.2064 17.9425L90.8268 20.4314H88.0801L89.6633 10.1235H92.41L91.6912 14.9228C92.3741 14.4373 93.1175 13.6024 93.4057 13.0866H96.3188C95.3932 14.3004 94.3313 15.4688 93.0866 16.3188C94.0727 17.3504 95.1806 19.0043 95.8635 20.4306H92.7833L92.7847 20.4314Z" fill="white"></path>
  <path d="M103.639 32.9523C102.728 32.9523 100.545 32.3018 101.036 29.2067C101.397 26.9219 103.263 25.6203 104.868 25.6203C105.389 25.6203 106.054 25.8082 106.43 26.1553L107.008 22.5259H109.64L108.367 30.5807C108.323 30.8697 108.425 30.9715 108.555 30.9715C108.685 30.9715 108.815 30.9572 109.264 30.798L109.003 32.4323C108.555 32.6489 107.803 32.9529 107.152 32.9529C106.617 32.9529 106.082 32.5191 105.966 32.0996C105.214 32.7938 104.347 32.9529 103.638 32.9529L103.639 32.9523ZM104.652 31.0002C105.086 31.0002 105.476 30.8704 105.707 30.7112L106.17 27.7609C105.953 27.6017 105.606 27.5006 105.316 27.5006C104.362 27.5006 103.682 28.397 103.538 29.2648C103.379 30.2193 103.841 31.0002 104.652 31.0002Z" fill="white"></path>
  <path d="M99.8359 28.8814L99.219 32.7586H96.4577L97.0601 28.9543C97.2509 27.6767 96.9865 27.3679 96.414 27.3679C96.1641 27.3679 95.7825 27.515 95.5035 27.6906L94.7103 32.758H92.0371L93.153 25.6489H95.6499L95.6645 26.2367C96.3404 25.6933 97.0448 25.4727 97.677 25.4727C98.6319 25.4727 100.306 25.9133 99.8359 28.88V28.8814Z" fill="white"></path>
  <path d="M87.8922 25.4727C89.7803 25.4727 91.8453 26.3724 91.3881 29.2048C90.9902 31.6978 88.9837 32.937 86.7123 32.9516C84.8982 32.9962 82.7592 31.9187 83.1871 29.2494C83.6151 26.5501 86.0488 25.4441 87.8929 25.4734L87.8922 25.4727ZM87.5675 27.4638C86.7562 27.4638 85.9889 28.2312 85.8265 29.1895C85.6495 30.2224 86.2098 30.9597 87.0211 30.9597C87.8323 30.9597 88.6143 30.2663 88.7767 29.1895C88.9391 28.1719 88.3787 27.4638 87.5675 27.4638Z" fill="white"></path>
  <path d="M75.9543 25.4727H78.8986L79.4929 29.3682L81.2921 25.4727H84.2365L79.3595 34.1118C78.6604 35.5091 77.8722 35.7325 76.4151 35.703H75.166L75.4786 33.7703H76.5788C76.7425 33.7703 76.9062 33.5624 76.9954 33.3537L77.6797 32.0899L75.955 25.4734L75.9543 25.4727Z" fill="white"></path>
  <path d="M68.3999 29.1815C68.7692 26.8321 70.72 25.4727 72.6554 25.4727C74.9456 25.4727 76.069 26.9354 75.6703 29.2856L75.5523 29.9356H71.0894C71.06 30.4383 71.3847 31.0737 72.4781 31.0737C73.0101 31.0737 74.3402 30.8817 74.9756 30.719L74.7242 32.4477C73.6308 32.7284 72.7148 32.9505 71.562 32.9651C69.4339 32.9651 67.9858 31.7977 68.3999 29.1822V29.1815ZM73.0548 28.5462C73.1581 28.1028 73.0995 27.4081 72.3454 27.4081C71.5914 27.4081 71.2814 28.1175 71.2374 28.5462H73.0548Z" fill="white"></path>
  <path d="M65.7453 27.5148C66.849 27.6891 67.3144 28.7352 67.1544 29.7373C66.8202 31.8582 65.2079 32.7587 63.0431 32.7587H58.583L60.1665 22.75H64.7858C65.7734 22.75 67.72 23.3018 67.3425 25.6987C67.2553 26.2073 66.8195 27.2533 65.7446 27.5148H65.7453ZM62.0265 28.7208L61.7218 30.5946H63.378C63.8283 30.5946 64.2202 30.2603 64.3225 29.694C64.4385 28.9678 64.017 28.7208 63.669 28.7208H62.0272H62.0265ZM63.5812 26.7886C64.133 26.7886 64.4385 26.3384 64.5256 25.8298C64.6128 25.3067 64.3513 24.9148 63.8722 24.9148H62.623L62.3327 26.7886H63.5819H63.5812Z" fill="white"></path>
  <defs>
    <linearGradient id="paint0_linear_80_3090" x1="-1.56166e-06" y1="8.37416" x2="39.5578" y2="46.7903" gradientUnits="userSpaceOnUse">
      <stop stop-color="#8160FC"></stop>
      <stop offset="1" stop-color="#E14ED8"></stop>
    </linearGradient>
    <linearGradient id="paint1_linear_80_3090" x1="8.12012" y1="11.9609" x2="32.9322" y2="36.7157" gradientUnits="userSpaceOnUse">
      <stop stop-color="#8160FC"></stop>
      <stop offset="1" stop-color="#E14ED8"></stop>
    </linearGradient>
    <clipPath id="clip0_80_3090">
      <rect width="55.1283" height="42" fill="white" transform="translate(0 0.5)"></rect>
    </clipPath>
  </defs>
</svg>
